<svg width="109" height="36" viewBox="0 0 109 36" fill="none" xmlns="http://www.w3.org/2000/svg">
<path d="M15.7795 25.0376V28H4.89761V25.0376H15.7795ZM5.93966 6.32546V28H2.20318V6.32546H5.93966ZM27.3909 24.7697V17.0883C27.3909 16.5127 27.2867 16.0165 27.0783 15.5997C26.8699 15.1828 26.5523 14.8603 26.1256 14.6321C25.7087 14.4038 25.1828 14.2897 24.5476 14.2897C23.9621 14.2897 23.4559 14.3889 23.0292 14.5874C22.6025 14.7859 22.27 15.0538 22.0318 15.3913C21.7936 15.7287 21.6745 16.1108 21.6745 16.5375H18.1018C18.1018 15.9024 18.2556 15.2871 18.5633 14.6916C18.8709 14.0961 19.3175 13.5652 19.9031 13.0988C20.4886 12.6323 21.1882 12.2651 22.002 11.9972C22.8158 11.7292 23.7289 11.5952 24.7411 11.5952C25.9519 11.5952 27.0237 11.7987 27.9566 12.2056C28.8994 12.6125 29.6387 13.2278 30.1746 14.0515C30.7205 14.8653 30.9934 15.8875 30.9934 17.1181V24.2784C30.9934 25.0128 31.043 25.6728 31.1423 26.2583C31.2514 26.8339 31.4053 27.3351 31.6037 27.7618V28H27.9268C27.7581 27.613 27.6241 27.1217 27.5249 26.5263C27.4356 25.9209 27.3909 25.3353 27.3909 24.7697ZM27.9119 18.2048L27.9417 20.4228H25.3664C24.7014 20.4228 24.1159 20.4874 23.6098 20.6164C23.1036 20.7355 22.6818 20.9141 22.3444 21.1523C22.007 21.3905 21.7539 21.6783 21.5852 22.0157C21.4165 22.3531 21.3322 22.7352 21.3322 23.1619C21.3322 23.5887 21.4314 23.9807 21.6299 24.338C21.8284 24.6853 22.1162 24.9582 22.4933 25.1567C22.8803 25.3552 23.3468 25.4544 23.8926 25.4544C24.627 25.4544 25.2671 25.3056 25.8129 25.0078C26.3687 24.7002 26.8054 24.328 27.1229 23.8914C27.4405 23.4448 27.6092 23.023 27.6291 22.626L28.7902 24.2189C28.6711 24.6258 28.4677 25.0624 28.1799 25.5289C27.8921 25.9953 27.515 26.4419 27.0485 26.8686C26.592 27.2855 26.0412 27.6278 25.3961 27.8958C24.761 28.1637 24.0266 28.2977 23.1929 28.2977C22.141 28.2977 21.2031 28.0893 20.3794 27.6725C19.5557 27.2458 18.9106 26.6751 18.4442 25.9606C17.9778 25.2361 17.7445 24.4174 17.7445 23.5043C17.7445 22.6508 17.9033 21.8966 18.2209 21.2416C18.5484 20.5767 19.0248 20.0209 19.65 19.5743C20.2851 19.1277 21.0592 18.7903 21.9723 18.562C22.8853 18.3239 23.9273 18.2048 25.0984 18.2048H27.9119ZM45.061 11.893H48.3211V27.5534C48.3211 29.0023 48.0135 30.233 47.3982 31.2452C46.7829 32.2575 45.9244 33.0266 44.8228 33.5526C43.7212 34.0885 42.446 34.3565 40.997 34.3565C40.3817 34.3565 39.697 34.2672 38.9427 34.0885C38.1984 33.9099 37.4739 33.6221 36.7693 33.2251C36.0746 32.8381 35.494 32.327 35.0276 31.6918L36.7098 29.578C37.2854 30.2627 37.9205 30.7639 38.6152 31.0815C39.3099 31.3991 40.0393 31.5578 40.8035 31.5578C41.6272 31.5578 42.3269 31.404 42.9025 31.0964C43.488 30.7986 43.9396 30.357 44.2571 29.7715C44.5747 29.1859 44.7335 28.4714 44.7335 27.6278V15.5401L45.061 11.893ZM34.1195 20.1251V19.8125C34.1195 18.5918 34.2684 17.4803 34.5661 16.478C34.8638 15.4657 35.2906 14.5973 35.8463 13.8728C36.4021 13.1385 37.077 12.5777 37.8709 12.1907C38.6648 11.7937 39.563 11.5952 40.5653 11.5952C41.6074 11.5952 42.4956 11.7838 43.23 12.1609C43.9743 12.538 44.5946 13.0789 45.0908 13.7835C45.587 14.4782 45.974 15.3119 46.2519 16.2844C46.5397 17.2471 46.7531 18.3189 46.892 19.4999V20.4973C46.763 21.6485 46.5447 22.7005 46.237 23.6532C45.9294 24.6059 45.5225 25.4296 45.0163 26.1243C44.5102 26.819 43.885 27.3549 43.1407 27.732C42.4063 28.1092 41.5379 28.2977 40.5356 28.2977C39.5531 28.2977 38.6648 28.0943 37.8709 27.6874C37.0869 27.2805 36.412 26.7098 35.8463 25.9755C35.2906 25.2411 34.8638 24.3777 34.5661 23.3852C34.2684 22.3829 34.1195 21.2962 34.1195 20.1251ZM37.7071 19.8125V20.1251C37.7071 20.8595 37.7766 21.5443 37.9156 22.1794C38.0644 22.8146 38.2877 23.3753 38.5854 23.8616C38.8931 24.338 39.2801 24.7151 39.7466 24.993C40.2229 25.2609 40.7837 25.3949 41.4287 25.3949C42.2723 25.3949 42.962 25.2163 43.4979 24.859C44.0438 24.5017 44.4606 24.0204 44.7484 23.415C45.0461 22.7997 45.2545 22.1149 45.3736 21.3607V18.6663C45.3141 18.0807 45.19 17.5349 45.0015 17.0288C44.8228 16.5226 44.5797 16.081 44.272 15.7039C43.9644 15.3168 43.5773 15.0191 43.1109 14.8107C42.6445 14.5924 42.0937 14.4832 41.4585 14.4832C40.8134 14.4832 40.2527 14.6221 39.7763 14.9C39.3 15.1779 38.908 15.56 38.6003 16.0463C38.3026 16.5325 38.0793 17.0982 37.9304 17.7433C37.7816 18.3884 37.7071 19.0781 37.7071 19.8125ZM51.3579 20.1251V19.7827C51.3579 18.6216 51.5266 17.5448 51.8641 16.5524C52.2015 15.55 52.6878 14.6817 53.3229 13.9473C53.968 13.203 54.752 12.6274 55.675 12.2205C56.6079 11.8036 57.6598 11.5952 58.8309 11.5952C60.0119 11.5952 61.0638 11.8036 61.9868 12.2205C62.9197 12.6274 63.7086 13.203 64.3537 13.9473C64.9988 14.6817 65.49 15.55 65.8275 16.5524C66.1649 17.5448 66.3336 18.6216 66.3336 19.7827V20.1251C66.3336 21.2863 66.1649 22.363 65.8275 23.3555C65.49 24.3479 64.9988 25.2163 64.3537 25.9606C63.7086 26.695 62.9246 27.2706 62.0017 27.6874C61.0787 28.0943 60.0317 28.2977 58.8607 28.2977C57.6797 28.2977 56.6227 28.0943 55.6899 27.6874C54.7669 27.2706 53.9829 26.695 53.3378 25.9606C52.6927 25.2163 52.2015 24.3479 51.8641 23.3555C51.5266 22.363 51.3579 21.2863 51.3579 20.1251ZM54.9455 19.7827V20.1251C54.9455 20.8496 55.02 21.5344 55.1688 22.1794C55.3177 22.8245 55.5509 23.3902 55.8685 23.8765C56.1861 24.3628 56.593 24.7448 57.0892 25.0227C57.5854 25.3006 58.1759 25.4395 58.8607 25.4395C59.5256 25.4395 60.1012 25.3006 60.5875 25.0227C61.0837 24.7448 61.4906 24.3628 61.8082 23.8765C62.1257 23.3902 62.3589 22.8245 62.5078 22.1794C62.6666 21.5344 62.746 20.8496 62.746 20.1251V19.7827C62.746 19.0682 62.6666 18.3933 62.5078 17.7582C62.3589 17.1131 62.1208 16.5425 61.7933 16.0463C61.4757 15.55 61.0688 15.163 60.5726 14.8851C60.0863 14.5973 59.5057 14.4534 58.8309 14.4534C58.156 14.4534 57.5705 14.5973 57.0743 14.8851C56.588 15.163 56.1861 15.55 55.8685 16.0463C55.5509 16.5425 55.3177 17.1131 55.1688 17.7582C55.02 18.3933 54.9455 19.0682 54.9455 19.7827ZM68.6559 20.1251V19.7827C68.6559 18.6216 68.8246 17.5448 69.162 16.5524C69.4994 15.55 69.9857 14.6817 70.6209 13.9473C71.266 13.203 72.05 12.6274 72.9729 12.2205C73.9058 11.8036 74.9578 11.5952 76.1288 11.5952C77.3098 11.5952 78.3618 11.8036 79.2847 12.2205C80.2176 12.6274 81.0066 13.203 81.6517 13.9473C82.2967 14.6817 82.788 15.55 83.1254 16.5524C83.4628 17.5448 83.6316 18.6216 83.6316 19.7827V20.1251C83.6316 21.2863 83.4628 22.363 83.1254 23.3555C82.788 24.3479 82.2967 25.2163 81.6517 25.9606C81.0066 26.695 80.2226 27.2706 79.2996 27.6874C78.3767 28.0943 77.3297 28.2977 76.1586 28.2977C74.9776 28.2977 73.9207 28.0943 72.9878 27.6874C72.0649 27.2706 71.2808 26.695 70.6358 25.9606C69.9907 25.2163 69.4994 24.3479 69.162 23.3555C68.8246 22.363 68.6559 21.2863 68.6559 20.1251ZM72.2435 19.7827V20.1251C72.2435 20.8496 72.3179 21.5344 72.4668 22.1794C72.6157 22.8245 72.8489 23.3902 73.1664 23.8765C73.484 24.3628 73.8909 24.7448 74.3871 25.0227C74.8833 25.3006 75.4738 25.4395 76.1586 25.4395C76.8235 25.4395 77.3991 25.3006 77.8854 25.0227C78.3816 24.7448 78.7885 24.3628 79.1061 23.8765C79.4237 23.3902 79.6569 22.8245 79.8058 22.1794C79.9645 21.5344 80.0439 20.8496 80.0439 20.1251V19.7827C80.0439 19.0682 79.9645 18.3933 79.8058 17.7582C79.6569 17.1131 79.4187 16.5425 79.0912 16.0463C78.7736 15.55 78.3667 15.163 77.8705 14.8851C77.3842 14.5973 76.8037 14.4534 76.1288 14.4534C75.454 14.4534 74.8685 14.5973 74.3722 14.8851C73.886 15.163 73.484 15.55 73.1664 16.0463C72.8489 16.5425 72.6157 17.1131 72.4668 17.7582C72.3179 18.3933 72.2435 19.0682 72.2435 19.7827ZM90.1964 15.3317V28H86.6088V11.893H89.988L90.1964 15.3317ZM89.5563 19.351L88.3952 19.3361C88.4051 18.1949 88.5639 17.1478 88.8716 16.1951C89.1891 15.2424 89.6258 14.4236 90.1816 13.7389C90.7472 13.0541 91.4221 12.5281 92.2061 12.1609C92.9901 11.7838 93.8634 11.5952 94.8261 11.5952C95.6002 11.5952 96.2998 11.7044 96.9251 11.9227C97.5602 12.1311 98.1011 12.4735 98.5477 12.9499C99.0042 13.4263 99.3516 14.0465 99.5897 14.8107C99.8279 15.5649 99.947 16.4928 99.947 17.5944V28H96.3445V17.5796C96.3445 16.8055 96.2304 16.1951 96.0021 15.7485C95.7838 15.292 95.4612 14.9695 95.0345 14.7809C94.6177 14.5824 94.0967 14.4832 93.4714 14.4832C92.8561 14.4832 92.3053 14.6122 91.8191 14.8702C91.3328 15.1283 90.9209 15.4806 90.5835 15.9272C90.256 16.3738 90.0029 16.8898 89.8243 17.4753C89.6456 18.0609 89.5563 18.6861 89.5563 19.351Z" fill="white"/>
<mask id="mask0_73_9" style="mask-type:alpha" maskUnits="userSpaceOnUse" x="2" y="6" width="98" height="29">
<path d="M15.7795 25.0376V28H4.89761V25.0376H15.7795ZM5.93966 6.32546V28H2.20318V6.32546H5.93966ZM27.3909 24.7697V17.0883C27.3909 16.5127 27.2867 16.0165 27.0783 15.5997C26.8699 15.1828 26.5523 14.8603 26.1256 14.6321C25.7087 14.4038 25.1828 14.2897 24.5476 14.2897C23.9621 14.2897 23.4559 14.3889 23.0292 14.5874C22.6025 14.7859 22.27 15.0538 22.0318 15.3913C21.7936 15.7287 21.6745 16.1108 21.6745 16.5375H18.1018C18.1018 15.9024 18.2556 15.2871 18.5633 14.6916C18.8709 14.0961 19.3175 13.5652 19.9031 13.0988C20.4886 12.6323 21.1882 12.2651 22.002 11.9972C22.8158 11.7292 23.7289 11.5952 24.7411 11.5952C25.9519 11.5952 27.0237 11.7987 27.9566 12.2056C28.8994 12.6125 29.6387 13.2278 30.1746 14.0515C30.7205 14.8653 30.9934 15.8875 30.9934 17.1181V24.2784C30.9934 25.0128 31.043 25.6728 31.1423 26.2583C31.2514 26.8339 31.4053 27.3351 31.6037 27.7618V28H27.9268C27.7581 27.613 27.6241 27.1217 27.5249 26.5263C27.4356 25.9209 27.3909 25.3353 27.3909 24.7697ZM27.9119 18.2048L27.9417 20.4228H25.3664C24.7014 20.4228 24.1159 20.4874 23.6098 20.6164C23.1036 20.7355 22.6818 20.9141 22.3444 21.1523C22.007 21.3905 21.7539 21.6783 21.5852 22.0157C21.4165 22.3531 21.3322 22.7352 21.3322 23.1619C21.3322 23.5887 21.4314 23.9807 21.6299 24.338C21.8284 24.6853 22.1162 24.9582 22.4933 25.1567C22.8803 25.3552 23.3468 25.4544 23.8926 25.4544C24.627 25.4544 25.2671 25.3056 25.8129 25.0078C26.3687 24.7002 26.8054 24.328 27.1229 23.8914C27.4405 23.4448 27.6092 23.023 27.6291 22.626L28.7902 24.2189C28.6711 24.6258 28.4677 25.0624 28.1799 25.5289C27.8921 25.9953 27.515 26.4419 27.0485 26.8686C26.592 27.2855 26.0412 27.6278 25.3961 27.8958C24.761 28.1637 24.0266 28.2977 23.1929 28.2977C22.141 28.2977 21.2031 28.0893 20.3794 27.6725C19.5557 27.2458 18.9106 26.6751 18.4442 25.9606C17.9778 25.2361 17.7445 24.4174 17.7445 23.5043C17.7445 22.6508 17.9033 21.8966 18.2209 21.2416C18.5484 20.5767 19.0248 20.0209 19.65 19.5743C20.2851 19.1277 21.0592 18.7903 21.9723 18.562C22.8853 18.3239 23.9273 18.2048 25.0984 18.2048H27.9119ZM45.061 11.893H48.3211V27.5534C48.3211 29.0023 48.0135 30.233 47.3982 31.2452C46.7829 32.2575 45.9244 33.0266 44.8228 33.5526C43.7212 34.0885 42.446 34.3565 40.997 34.3565C40.3817 34.3565 39.697 34.2672 38.9427 34.0885C38.1984 33.9099 37.4739 33.6221 36.7693 33.2251C36.0746 32.8381 35.494 32.327 35.0276 31.6918L36.7098 29.578C37.2854 30.2627 37.9205 30.7639 38.6152 31.0815C39.3099 31.3991 40.0393 31.5578 40.8035 31.5578C41.6272 31.5578 42.3269 31.404 42.9025 31.0964C43.488 30.7986 43.9396 30.357 44.2571 29.7715C44.5747 29.1859 44.7335 28.4714 44.7335 27.6278V15.5401L45.061 11.893ZM34.1195 20.1251V19.8125C34.1195 18.5918 34.2684 17.4803 34.5661 16.478C34.8638 15.4657 35.2906 14.5973 35.8463 13.8728C36.4021 13.1385 37.077 12.5777 37.8709 12.1907C38.6648 11.7937 39.563 11.5952 40.5653 11.5952C41.6074 11.5952 42.4956 11.7838 43.23 12.1609C43.9743 12.538 44.5946 13.0789 45.0908 13.7835C45.587 14.4782 45.974 15.3119 46.2519 16.2844C46.5397 17.2471 46.7531 18.3189 46.892 19.4999V20.4973C46.763 21.6485 46.5447 22.7005 46.237 23.6532C45.9294 24.6059 45.5225 25.4296 45.0163 26.1243C44.5102 26.819 43.885 27.3549 43.1407 27.732C42.4063 28.1092 41.5379 28.2977 40.5356 28.2977C39.5531 28.2977 38.6648 28.0943 37.8709 27.6874C37.0869 27.2805 36.412 26.7098 35.8463 25.9755C35.2906 25.2411 34.8638 24.3777 34.5661 23.3852C34.2684 22.3829 34.1195 21.2962 34.1195 20.1251ZM37.7071 19.8125V20.1251C37.7071 20.8595 37.7766 21.5443 37.9156 22.1794C38.0644 22.8146 38.2877 23.3753 38.5854 23.8616C38.8931 24.338 39.2801 24.7151 39.7466 24.993C40.2229 25.2609 40.7837 25.3949 41.4287 25.3949C42.2723 25.3949 42.962 25.2163 43.4979 24.859C44.0438 24.5017 44.4606 24.0204 44.7484 23.415C45.0461 22.7997 45.2545 22.1149 45.3736 21.3607V18.6663C45.3141 18.0807 45.19 17.5349 45.0015 17.0288C44.8228 16.5226 44.5797 16.081 44.272 15.7039C43.9644 15.3168 43.5773 15.0191 43.1109 14.8107C42.6445 14.5924 42.0937 14.4832 41.4585 14.4832C40.8134 14.4832 40.2527 14.6221 39.7763 14.9C39.3 15.1779 38.908 15.56 38.6003 16.0463C38.3026 16.5325 38.0793 17.0982 37.9304 17.7433C37.7816 18.3884 37.7071 19.0781 37.7071 19.8125ZM51.3579 20.1251V19.7827C51.3579 18.6216 51.5266 17.5448 51.8641 16.5524C52.2015 15.55 52.6878 14.6817 53.3229 13.9473C53.968 13.203 54.752 12.6274 55.675 12.2205C56.6079 11.8036 57.6598 11.5952 58.8309 11.5952C60.0119 11.5952 61.0638 11.8036 61.9868 12.2205C62.9197 12.6274 63.7086 13.203 64.3537 13.9473C64.9988 14.6817 65.49 15.55 65.8275 16.5524C66.1649 17.5448 66.3336 18.6216 66.3336 19.7827V20.1251C66.3336 21.2863 66.1649 22.363 65.8275 23.3555C65.49 24.3479 64.9988 25.2163 64.3537 25.9606C63.7086 26.695 62.9246 27.2706 62.0017 27.6874C61.0787 28.0943 60.0317 28.2977 58.8607 28.2977C57.6797 28.2977 56.6227 28.0943 55.6899 27.6874C54.7669 27.2706 53.9829 26.695 53.3378 25.9606C52.6927 25.2163 52.2015 24.3479 51.8641 23.3555C51.5266 22.363 51.3579 21.2863 51.3579 20.1251ZM54.9455 19.7827V20.1251C54.9455 20.8496 55.02 21.5344 55.1688 22.1794C55.3177 22.8245 55.5509 23.3902 55.8685 23.8765C56.1861 24.3628 56.593 24.7448 57.0892 25.0227C57.5854 25.3006 58.1759 25.4395 58.8607 25.4395C59.5256 25.4395 60.1012 25.3006 60.5875 25.0227C61.0837 24.7448 61.4906 24.3628 61.8082 23.8765C62.1257 23.3902 62.3589 22.8245 62.5078 22.1794C62.6666 21.5344 62.746 20.8496 62.746 20.1251V19.7827C62.746 19.0682 62.6666 18.3933 62.5078 17.7582C62.3589 17.1131 62.1208 16.5425 61.7933 16.0463C61.4757 15.55 61.0688 15.163 60.5726 14.8851C60.0863 14.5973 59.5057 14.4534 58.8309 14.4534C58.156 14.4534 57.5705 14.5973 57.0743 14.8851C56.588 15.163 56.1861 15.55 55.8685 16.0463C55.5509 16.5425 55.3177 17.1131 55.1688 17.7582C55.02 18.3933 54.9455 19.0682 54.9455 19.7827ZM68.6559 20.1251V19.7827C68.6559 18.6216 68.8246 17.5448 69.162 16.5524C69.4994 15.55 69.9857 14.6817 70.6209 13.9473C71.266 13.203 72.05 12.6274 72.9729 12.2205C73.9058 11.8036 74.9578 11.5952 76.1288 11.5952C77.3098 11.5952 78.3618 11.8036 79.2847 12.2205C80.2176 12.6274 81.0066 13.203 81.6517 13.9473C82.2967 14.6817 82.788 15.55 83.1254 16.5524C83.4628 17.5448 83.6316 18.6216 83.6316 19.7827V20.1251C83.6316 21.2863 83.4628 22.363 83.1254 23.3555C82.788 24.3479 82.2967 25.2163 81.6517 25.9606C81.0066 26.695 80.2226 27.2706 79.2996 27.6874C78.3767 28.0943 77.3297 28.2977 76.1586 28.2977C74.9776 28.2977 73.9207 28.0943 72.9878 27.6874C72.0649 27.2706 71.2808 26.695 70.6358 25.9606C69.9907 25.2163 69.4994 24.3479 69.162 23.3555C68.8246 22.363 68.6559 21.2863 68.6559 20.1251ZM72.2435 19.7827V20.1251C72.2435 20.8496 72.3179 21.5344 72.4668 22.1794C72.6157 22.8245 72.8489 23.3902 73.1664 23.8765C73.484 24.3628 73.8909 24.7448 74.3871 25.0227C74.8833 25.3006 75.4738 25.4395 76.1586 25.4395C76.8235 25.4395 77.3991 25.3006 77.8854 25.0227C78.3816 24.7448 78.7885 24.3628 79.1061 23.8765C79.4237 23.3902 79.6569 22.8245 79.8058 22.1794C79.9645 21.5344 80.0439 20.8496 80.0439 20.1251V19.7827C80.0439 19.0682 79.9645 18.3933 79.8058 17.7582C79.6569 17.1131 79.4187 16.5425 79.0912 16.0463C78.7736 15.55 78.3667 15.163 77.8705 14.8851C77.3842 14.5973 76.8037 14.4534 76.1288 14.4534C75.454 14.4534 74.8685 14.5973 74.3722 14.8851C73.886 15.163 73.484 15.55 73.1664 16.0463C72.8489 16.5425 72.6157 17.1131 72.4668 17.7582C72.3179 18.3933 72.2435 19.0682 72.2435 19.7827ZM90.1964 15.3317V28H86.6088V11.893H89.988L90.1964 15.3317ZM89.5563 19.351L88.3952 19.3361C88.4051 18.1949 88.5639 17.1478 88.8716 16.1951C89.1891 15.2424 89.6258 14.4236 90.1816 13.7389C90.7472 13.0541 91.4221 12.5281 92.2061 12.1609C92.9901 11.7838 93.8634 11.5952 94.8261 11.5952C95.6002 11.5952 96.2998 11.7044 96.9251 11.9227C97.5602 12.1311 98.1011 12.4735 98.5477 12.9499C99.0042 13.4263 99.3516 14.0465 99.5897 14.8107C99.8279 15.5649 99.947 16.4928 99.947 17.5944V28H96.3445V17.5796C96.3445 16.8055 96.2304 16.1951 96.0021 15.7485C95.7838 15.292 95.4612 14.9695 95.0345 14.7809C94.6177 14.5824 94.0967 14.4832 93.4714 14.4832C92.8561 14.4832 92.3053 14.6122 91.8191 14.8702C91.3328 15.1283 90.9209 15.4806 90.5835 15.9272C90.256 16.3738 90.0029 16.8898 89.8243 17.4753C89.6456 18.0609 89.5563 18.6861 89.5563 19.351Z" fill="white"/>
</mask>
<g mask="url(#mask0_73_9)">
<rect x="97.0254" y="-10" width="34" height="88.3552" transform="rotate(56.9097 97.0254 -10)" fill="#0037F9"/>
</g>
</svg>
